<?xml version="1.0" encoding="UTF-8" standalone="no"?>
<svg
   version="1.1"
   id="Layer_1"
   viewBox="0 0 2521 2911"
   width="2521"
   height="2911"
   sodipodi:docname="logo.svg"
   inkscape:version="1.4.3 (0d15f75042, 2025-12-25)"
   xmlns:inkscape="http://www.inkscape.org/namespaces/inkscape"
   xmlns:sodipodi="http://sodipodi.sourceforge.net/DTD/sodipodi-0.dtd"
   xmlns="http://www.w3.org/2000/svg"
   xmlns:svg="http://www.w3.org/2000/svg">
  <defs
     id="defs1" />
  <sodipodi:namedview
     id="namedview1"
     pagecolor="#505050"
     bordercolor="#ffffff"
     borderopacity="1"
     inkscape:showpageshadow="0"
     inkscape:pageopacity="0"
     inkscape:pagecheckerboard="1"
     inkscape:deskcolor="#505050"
     inkscape:zoom="0.21161113"
     inkscape:cx="456.02516"
     inkscape:cy="1257.0227"
     inkscape:window-width="1920"
     inkscape:window-height="1011"
     inkscape:window-x="0"
     inkscape:window-y="0"
     inkscape:window-maximized="1"
     inkscape:current-layer="Layer_1" />
  <style
     type="text/css"
     id="style1">
	.st0{fill:#FFFFFF;}
	.st1{fill:#F6C9AC;}
	.st2{fill:#7C3B1A;}
</style>
  <polygon
     class="st0"
     points="2507.2,2180.7 2508.6,783.6 1297.2,1482.8 1297.5,2881.3 "
     id="polygon3"
     style="fill:#ff00ff;fill-opacity:1"
     transform="matrix(-0.52969275,0,0,0.52969275,1935.448,409.18244)" />
  <polygon
     class="st1"
     points="1259.8,51.9 2474.7,754.2 2474.7,2158.9 1259.8,2861.3 44.9,2158.9 44.9,754.2 "
     id="polygon1"
     transform="translate(1.7051546,-1.1000129)"
     style="fill:#6a7e3f;fill-opacity:1" />
  <path
     class="st2"
     d="M 1261.5052,2911 1.0051091,2183.3 V 727.69998 L 1261.5052,-2.58e-5 2522.0052,727.69998 V 2183.3 l -22.5,13 z M 90.80511,2131.3 l 1170.70009,675.9 1170.7,-675.9 V 779.69998 l -1170.7,-675.9 -1170.70009,675.9 z"
     id="path23"
     style="fill:#4c5c2d;fill-opacity:1" />
  <text
     xml:space="preserve"
     id="text26"
     style="font-size:450.37px;writing-mode:lr-tb;direction:ltr;white-space:pre;fill:#fbf6f6;fill-opacity:1;stroke-width:7.03703"
     x="10024.34"
     y="-7956.9185"><tspan
       x="779.57849"
       y="2498.6899"
       id="tspan4"
       style="stroke-width:7.03703"><tspan
         style="font-style:italic;font-family:'FantasqueSansM Nerd Font';stroke-width:7.03703"
         id="tspan3">idem</tspan></tspan></text>
  <path
     class="st0"
     d="M 1034.5,151.4"
     id="path1" />
  <g
     id="g1"
     transform="matrix(1.1284081,0,0,1.1284081,-161.37074,-108.14187)">
    <g
       id="g185"
       transform="matrix(-0.94451685,0,0,1.7531807,-195.4123,357.19349)">
      <g
         id="g184">
        <g
           id="g183"
           transform="matrix(1.4739285,0,0,0.84089756,-839.81215,541.0387)">
          <path
             d="m -944.17966,-152.16715 c -2.09706,0.43953 -1.62049,3.47159 -1.61763,6.16561 l 0.0654,61.714116 c 0.008,7.603838 0.48218,8.41743 7.18336,12.075988 l 99.13494,54.123446 c 3.25154,1.7752 4.67313,0.887989 4.67026,-2.914822 l -0.0505,-67.117858 c -0.001,-1.902141 0.26735,-3.656854 -1.8335,-5.35781 l -5.08155,-2.772881 -90.42007,-49.340029 z"
             style="fill:#fbf6f6"
             id="path156" />
          <path
             d="m -706.37188,63.815954 c -0.0894,-0.04166 -0.17636,-0.08282 -0.2609,-0.122327 0.93998,0.570901 1.85568,1.231371 2.63414,1.656407 l 98.69183,53.884956 c 0.84648,0.46217 1.69261,0.79591 2.45835,1.14565 -0.59435,-0.36619 -1.33444,-0.77036 -2.25563,-1.27332 z m -1.44213,-0.651218 c -0.99319,-0.402228 -1.44573,-0.388907 -1.64954,0.327937 0.33838,-0.362716 0.85303,-0.512901 1.64954,-0.327937 z m -1.09391,74.404974 c 0.25608,0.41112 0.57964,0.7677 0.96411,1.08037 -0.37187,-0.34166 -0.69178,-0.6997 -0.96411,-1.08037 z"
             style="fill:#fbf6f6"
             id="path157" />
          <path
             d="m -707.26181,-22.674751 c -1.82849,-1.036678 -2.59036,-0.123965 -2.39872,2.284103 l 7.8e-4,1.902949 0.0264,64.756463 10e-4,2.456357 c -0.20277,1.473875 0.47546,2.953656 2.10277,3.842093 l 52.15244,28.472751 c 16.75532,9.147603 33.30968,18.185808 50.06907,27.256385 6.03932,3.29718 4.88513,2.19149 4.88455,-3.27784 l -0.007,-64.217535 -2.6e-4,-2.457852 -6e-5,-0.556001 c -0.20376,-1.459152 -1.08645,-2.733124 -2.30814,-3.399772 l -3.05418,-1.666594 -98.98658,-54.014654 -2.10215,-1.147097 c -0.13137,-0.08659 -0.25827,-0.164629 -0.38014,-0.233748 z"
             style="fill:#fbf6f6"
             id="path158" />
          <path
             d="m -943.59372,-238.26764 c -2.775,-0.16646 -2.29752,3.10465 -2.09185,5.59367 l 0.0666,62.85351 0.003,3.01039 2.5e-4,0.23835 c 0.003,2.37732 1.89998,5.07548 3.728,6.07292 l 4.19723,2.29018 95.16149,51.92397 3.72653,2.03335 0.94886,0.51774 c 2.10029,0.90831 3.25051,-0.68158 3.04562,-2.9326 l -0.0514,-68.26009 c -0.002,-2.37882 -0.68032,-4.17527 -2.78142,-5.55891 -0.94879,-0.51744 -2.10124,-0.90753 -3.25333,-1.53584 l -99.44978,-54.23593 c -0.94808,-0.51704 -2.09875,-1.38288 -3.24996,-2.01071 z"
             style="fill:#fbf6f6"
             id="path159" />
          <path
             d="m -706.84875,-109.15661 c -3.05236,-1.10954 -2.77884,1.7367 -2.98134,4.08447 l 0.0266,65.262831 c 0.002,3.805665 1.22178,5.818991 4.68069,7.706301 l 55.82991,30.4629055 46.55295,25.4010435 c 2.30772,1.259176 3.93724,1.911345 3.93688,-1.657294 l -0.007,-68.294767 c -2.4e-4,-2.380031 -0.679,-4.177848 -2.78358,-5.563592 -0.95043,-0.518327 -2.10503,-0.909392 -3.25911,-1.538779 l -98.73932,-53.848479 c -0.94972,-0.51794 -2.10359,-1.38573 -3.2568,-2.01464 z"
             style="fill:#fbf6f6"
             id="path160" />
          <path
             d="m -589.29263,127.81915 c -0.73711,-0.40246 -1.28085,-0.24621 -1.57715,0.27048 0.36281,-0.38212 0.91314,-0.45699 1.62621,-0.24369 z m 1.79727,0.98129 c 0.69058,0.44649 1.3513,0.89726 1.9352,1.21606 l 49.61712,27.09056 2e-5,-0.15947 -49.88888,-27.23891 z"
             style="fill:#fbf6f6"
             id="path161" />
          <path
             d="m -589.02725,41.630884 c -2.78289,-0.408425 -1.83324,2.488926 -1.49365,5.449516 l 0.005,63.34695 c 5.7e-4,7.37182 0.20391,7.72031 6.51533,11.16608 l 56.3406,30.75961 41.96562,22.91148 c 4.89004,2.35258 5.0939,1.98781 5.09514,-3.48289 0.20887,-22.40757 -0.26094,-45.26647 0.21968,-67.61072 3.1e-4,-1.34838 5.6e-4,-2.45945 -1.42697,-3.79371 l -3.05688,-1.668069 -101.10922,-55.172932 c -1.22183,-0.666724 -2.10427,-1.38676 -3.05457,-1.905315 z"
             style="fill:#fbf6f6"
             id="path162" />
          <path
             d="m -588.35467,-44.534783 c -1.83313,-0.761713 -2.78434,0.06913 -2.51257,2.755978 l 0.005,68.294341 c 2.6e-4,3.251483 1.15431,5.228357 3.73377,6.635812 l 3.7335,2.037153 94.79705,51.725142 3.46555,1.890949 c 2.78523,1.519734 3.93958,0.801574 3.94039,-2.767971 l 0.0152,-67.755711 c 4.3e-4,-1.9045 0.001,-3.808724 -1.83306,-5.364721 -0.95126,-0.518777 -2.10694,-0.910328 -3.26202,-1.540261 l -98.825,-53.895202 c -0.95055,-0.51839 -2.10398,-1.386046 -3.2582,-2.015509 z"
             style="fill:#fbf6f6"
             id="path163" />
          <path
             d="m -825.23879,-173.7217 c -2.1005,-0.35288 -1.89501,1.97921 -1.82578,3.99854 l 0.0484,66.11979 c 0.003,3.804707 1.15556,5.542323 4.4082,7.317088 l 100.93855,55.075844 c 4.67927,2.553185 4.88197,2.188206 4.87964,-3.282357 l -0.0146,-34.253615 -0.0128,-29.89941 c -10e-4,-2.69666 -0.002,-5.39335 -3.0549,-7.61319 -0.94961,-0.51788 -2.10314,-0.90846 -3.25622,-1.53731 l -98.85642,-53.91233 c -0.9489,-0.51749 -2.10184,-1.38468 -3.25405,-2.01305 z"
             style="fill:#fbf6f6"
             id="path164" />
          <path
             d="m -944.56595,-325.25915 c -1.62477,-0.0929 -1.41928,1.92154 -1.41751,3.58711 l 0.0721,68.03781 c 0.002,1.66493 -0.47079,3.30888 1.15531,4.98799 l 0.6772,0.36929 c 1.62446,0.0935 3.04688,0.86823 4.67246,1.99241 l 98.57179,53.7533 c 4.87963,2.66097 4.88045,2.66141 4.87595,-3.28616 l -0.0457,-60.43778 c -0.007,-9.83703 -0.007,-9.83734 -8.61707,-14.52996 l -99.26719,-54.10482 z"
             style="fill:#d96868"
             id="path165" />
          <path
             d="m -707.56151,-195.28831 c -1.42488,-0.77662 -2.10279,-0.35306 -2.10212,1.31336 l 10e-4,3.01602 0.0259,63.70743 10e-4,3.0149 c 7.8e-4,1.90374 0.88325,3.17832 2.30784,3.95517 l 52.17749,28.453397 49.88892,27.126376 3.25787,1.77658 0.20421,0.111361 c 0.95047,0.518308 1.62954,-0.143684 1.62943,-1.254456 l -3.8e-4,-3.570385 -0.007,-63.406223 c -5.9e-4,-5.71477 -5.9e-4,-5.71415 -5.09338,-8.48995 l -99.23829,-54.08936 z"
             style="fill:#d96868"
             id="path166" />
          <path
             d="m -773.42938,-231.18928 -51.53233,-27.53295 c -1.42365,-0.77596 -2.10032,0.20461 -2.0995,1.31527 l 0.003,3.807 0.0384,52.5106 0.009,12.21181 c 0.20577,3.44158 0.20649,3.67978 3.25655,5.34304 l 102.7928,56.05498 c 1.35662,0.7398 2.3062,0.46586 2.30537,-1.43784 l -0.001,-3.01485 -0.0276,-63.94478 -10e-4,-2.45956 c -9.6e-4,-2.22185 -0.95169,-3.53401 -2.57998,-4.4215 l -3.05299,-1.66401 z"
             style="fill:#d96868"
             id="path167" />
          <path
             d="m -589.5161,-130.94822 c -0.95075,-0.5182 -1.63003,0.14276 -1.62994,1.254 l 2.8e-4,3.57178 0.005,63.170356 c 4.7e-4,5.950726 -0.27113,5.563975 5.09271,8.488977 l 98.82744,53.89239876 3.26205,1.77885404 c 1.15513,0.629916 1.63123,0.096464 1.63153,-1.25267305 -0.40306,-21.25427775 -0.19511,-42.09907975 -0.19048,-63.05653975 -0.20322,-3.127936 0.001,-5.716092 0.47849,-8.473244 -1.15527,-1.106092 -2.31057,-2.053393 -3.73778,-2.831286 l -100.95523,-55.025173 -2.57981,-1.40611 z"
             style="fill:#d96868"
             id="path168" />
          <path
             d="m -826.67572,72.641906 c 0.15118,1.103003 0.5959,1.538512 1.90983,2.292469 -0.87258,-0.675688 -1.49395,-1.406354 -1.90983,-2.292469 z m 107.51546,59.952124 c -0.696,-0.2193 -1.63701,-0.69783 -2.90847,-1.39238 l -51.02931,-27.87575 4e-5,0.0789 50.89429,27.802 c 1.53743,0.83985 2.47364,1.35078 3.04345,1.38724 z"
             style="fill:#fbf6f6"
             id="path169" />
          <path
             d="m -825.17573,-86.912383 c -1.42298,-0.776483 -2.09973,-0.353193 -2.09833,1.548993 l 0.002,2.456652 0.0478,65.216769 0.002,2.455733 c 10e-4,1.901429 0.88276,2.936667 2.30544,3.713382 l 52.10764,28.448287 50.22859,27.343513 c 3.93233,2.146863 3.93151,2.146735 3.92977,-1.894766 l -0.029,-67.134626 c -0.002,-3.805254 -0.273,-4.190793 -3.73145,-6.077992 z"
             style="fill:#fbf6f6"
             id="path170" />
          <path
             d="m -945.44216,-66.476237 c 4.1e-4,0.390435 -0.01,0.761247 -0.0279,1.121062 0.27211,-0.283509 0.64539,-0.465286 1.1529,-0.506821 z m -0.0852,74.1968346 c 0.13128,0.8980875 0.42126,1.4477436 1.06677,1.9859222 -0.4387,-0.61016 -0.80997,-1.288237 -1.06677,-1.9859222 z"
             style="fill:#fbf6f6"
             id="path171" />
          <path
             d="m -944.47204,20.152724 c -2.09605,0.437228 -1.61835,3.467564 -1.6155,6.159014 l 0.0654,61.655184 c 0.008,7.596579 0.48196,8.408264 7.17993,12.069298 l 99.08735,54.16005 c 3.24997,1.7764 4.66953,0.89057 4.66666,-2.90861 l -0.0506,-67.052198 c -0.001,-1.900324 0.26857,-3.652388 -1.83127,-5.353582 l -5.07912,-2.774758 -90.37665,-49.373446 z"
             style="fill:#fbf6f6"
             id="path172" />
          <path
             d="m -706.77839,236.14125 c -3.04958,-1.42951 -3.25207,-1.54052 -3.25052,2.25936 l 0.0276,67.59324 4.6e-4,1.10663 c 9e-4,2.21572 0.94899,3.526 2.57514,4.41534 l 52.1151,28.50174 50.23579,27.23591 c 4.20413,2.29923 4.20494,2.30029 4.20442,-2.60711 l -0.007,-65.15513 c -5.8e-4,-5.46359 -8.5e-4,-5.4625 -4.68061,-8.02057 z"
             style="fill:#fbf6f6"
             id="path173" />
          <path
             d="m -707.66663,149.73319 c -1.82761,-1.03732 -2.58918,-0.1262 -2.39756,2.27978 l 7.7e-4,1.90114 0.0264,64.69456 10e-4,2.45401 c -0.20267,1.47229 0.47523,2.95126 2.10176,3.8403 l 52.12737,28.49198 c 16.74726,9.15378 33.29231,18.19735 50.04364,27.27418 6.03641,3.29941 4.88413,2.19449 4.88355,-3.26961 l -0.007,-64.15614 -2.6e-4,-2.45549 -6e-5,-0.55548 c -0.20366,-1.45794 -1.08593,-2.73148 -2.30703,-3.39858 l -3.05271,-1.66772 -98.93897,-54.05119 -2.10115,-1.14787 c -0.13131,-0.0866 -0.25814,-0.1647 -0.37995,-0.23387 z"
             style="fill:#fbf6f6"
             id="path174" />
          <path
             d="m -943.88646,-65.864926 c -2.77366,-0.168775 -2.29641,3.099637 -2.09083,5.586451 l 0.0666,62.7934862 0.003,3.0075078 2.5e-4,0.238124 c 0.003,2.3750552 1.89907,5.072324 3.72621,6.070442 l 4.19657,2.292469 95.1158,51.959144 3.72475,2.034724 0.94705,0.517347 c 2.09927,0.90932 3.24893,-0.67958 3.04414,-2.928629 l -0.0514,-68.1933138 c -0.002,-2.3765482 -0.67999,-4.1718885 -2.78008,-5.5560789 -0.94834,-0.5177829 -2.09888,-0.907789 -3.25041,-1.536516 L -940.6367,-63.852494 c -0.94762,-0.517394 -2.09909,-1.384178 -3.24976,-2.012432 z"
             style="fill:#fbf6f6"
             id="path175" />
          <path
             d="m -707.25387,63.334395 c -3.05089,-1.111198 -2.77886,1.730274 -2.98126,4.075619 l 0.0267,65.201996 c 0.002,3.80202 1.22256,5.81525 4.67981,7.70384 l 55.80307,30.48352 46.53055,25.41823 c 2.30661,1.26002 3.93398,1.91073 3.93362,-1.6545 l -0.007,-68.2279 c -2.4e-4,-2.37776 -0.67868,-4.17446 -2.78225,-5.56075 -0.94997,-0.51868 -2.10266,-0.90965 -3.25618,-1.53946 l -98.69183,-53.884964 c -0.94926,-0.518291 -2.10257,-1.386287 -3.25523,-2.015631 z"
             style="fill:#fbf6f6"
             id="path176" />
          <path
             d="m -589.75544,300.18754 c -1.15309,-0.6303 -1.83074,0.10751 -1.83063,1.45364 l 0.005,67.3729 c 4.4e-4,5.46159 7.1e-4,5.46205 4.67997,8.02113 l 99.38737,54.35481 c 5.09004,2.78373 5.09004,2.78373 5.09135,-3.15418 l 0.0144,-65.1721 4.2e-4,-1.89962 5e-5,-0.23823 c 2.5e-4,-1.10885 -0.88286,-2.38401 -1.83321,-2.9035 l -3.05464,-1.66973 -49.13527,-26.85851 10e-6,-0.15777 -49.86487,-27.25729 -3.25639,-1.78002 z"
             style="fill:#fbf6f6"
             id="path177" />
          <path
             d="m -589.4903,214.08192 c -2.78155,-0.41052 -1.831,2.48566 -1.49156,5.44372 l 0.005,63.28638 c 5.8e-4,7.36478 0.20382,7.71311 6.5122,11.16121 l 56.31349,30.78038 41.94542,22.92693 c 4.88769,2.35469 5.09146,1.99045 5.09269,-3.47501 0.20873,-22.38597 -0.26225,-45.22572 0.21812,-67.54816 3e-4,-1.3471 8.2e-4,-2.4554 -1.42494,-3.78906 l -3.05541,-1.6692 -101.06191,-55.21097 c -1.22124,-0.66718 -2.10326,-1.38731 -3.0531,-1.90622 z"
             style="fill:#fbf6f6"
             id="path178" />
          <path
             d="m -588.81814,127.99927 c -1.83225,-0.76262 -2.78165,0.0658 -2.51001,2.75029 l 0.005,68.23059 c 2.6e-4,3.24837 1.15376,5.22437 3.73197,6.63278 l 3.73171,2.03853 94.75142,51.76012 3.46253,1.89148 c 2.78388,1.52076 3.93904,0.80506 3.93983,-2.76107 l 0.0151,-67.69089 c 4.3e-4,-1.90267 8.5e-4,-3.80537 -1.83354,-5.36196 -0.9508,-0.51913 -2.10457,-0.91058 -3.25909,-1.54094 l -98.77742,-53.9317 c -0.95009,-0.51874 -2.10432,-1.38734 -3.25798,-2.01723 z"
             style="fill:#fbf6f6"
             id="path179" />
          <path
             d="m -825.58701,-1.2744627 c -2.09949,-0.3544124 -1.89544,1.97489251 -1.82625,3.9923579 l 0.0484,66.0550538 c 0.003,3.801066 1.155,5.5396 4.40608,7.315567 l 100.89004,55.113134 c 4.67703,2.55491 4.88099,2.1912 4.87865,-3.27413 l -0.0147,-34.22243 -0.0128,-29.869272 c -10e-4,-2.694079 -0.002,-5.388198 -3.05344,-7.608637 -0.94915,-0.518229 -2.10212,-0.909457 -3.25465,-1.538726 L -822.33587,0.73882875 c -0.94844,-0.51784281 -2.09948,-1.38449302 -3.25114,-2.01329145 z"
             style="fill:#fbf6f6"
             id="path180" />
          <path
             d="m -823.70079,172.78199 c -3.45332,-1.88767 -3.45305,-1.88783 -3.45009,2.14852 l 0.0308,42.10024 0.0187,25.47579 c 0.003,3.56008 0.003,3.56008 3.04902,5.22616 l 50.57987,27.66213 1.3e-4,0.23798 50.86984,27.82076 c 3.92951,2.14905 3.93005,2.14872 3.92806,-2.4409 l -0.0286,-66.24539 c -0.002,-4.59141 -0.003,-4.59234 -3.93285,-6.74075 z"
             style="fill:#fbf6f6"
             id="path181" />
          <path
             d="m -825.5239,85.451905 c -1.42229,-0.777009 -2.09871,-0.354727 -2.09732,1.545642 l 0.002,2.454305 0.0478,65.152928 0.002,2.45493 c 0.001,1.89961 0.88099,2.9339 2.30299,3.71114 l 52.0826,28.46752 50.20446,27.36212 c 3.93043,2.14831 3.93098,2.14703 3.92923,-1.89026 l -0.0291,-67.06892 c -0.002,-3.80162 -0.27287,-4.18703 -3.72966,-6.0755 z"
             style="fill:#fbf6f6"
             id="path182" />
          <path
             d="m -945.73387,105.75905 c 0.002,1.89899 -0.26583,3.33445 -0.26373,5.31252 l 0.0473,44.54114 0.0225,21.19745 c 0.005,4.58738 0.005,4.588 3.92714,6.73309 l 102.64977,56.13928 c 1.6246,0.88849 2.29984,0.4667 2.29839,-1.43197 l -0.003,-3.56005 -0.0477,-62.74814 c -0.005,-6.80621 0.94327,-6.28747 -5.55645,-9.84037 z"
             style="fill:#fbf6f6"
             id="path183" />
        </g>
      </g>
    </g>
    <g
       id="g155"
       transform="matrix(0.94451685,0,0,1.7531807,2717.3295,358.02495)">
      <g
         id="g154">
        <g
           id="g153"
           transform="matrix(1.4739285,0,0,0.84089756,-839.81215,541.0387)">
          <path
             d="m -944.17966,-152.16715 c -2.09706,0.43953 -1.62049,3.47159 -1.61763,6.16561 l 0.0654,61.714116 c 0.008,7.603838 0.48218,8.41743 7.18336,12.075988 l 99.13494,54.123446 c 3.25154,1.7752 4.67313,0.887989 4.67026,-2.914822 l -0.0505,-67.117858 c -0.001,-1.902141 0.26735,-3.656854 -1.8335,-5.35781 l -5.08155,-2.772881 -90.42007,-49.340029 z"
             style="fill:#fbf6f6"
             id="path126" />
          <path
             d="m -706.37188,63.815954 c -0.0894,-0.04166 -0.17636,-0.08282 -0.2609,-0.122327 0.93998,0.570901 1.85568,1.231371 2.63414,1.656407 l 98.69183,53.884956 c 0.84648,0.46217 1.69261,0.79591 2.45835,1.14565 -0.59435,-0.36619 -1.33444,-0.77036 -2.25563,-1.27332 z m -1.44213,-0.651218 c -0.99319,-0.402228 -1.44573,-0.388907 -1.64954,0.327937 0.33838,-0.362716 0.85303,-0.512901 1.64954,-0.327937 z m -1.09391,74.404974 c 0.25608,0.41112 0.57964,0.7677 0.96411,1.08037 -0.37187,-0.34166 -0.69178,-0.6997 -0.96411,-1.08037 z"
             style="fill:#fbf6f6"
             id="path127" />
          <path
             d="m -707.26181,-22.674751 c -1.82849,-1.036678 -2.59036,-0.123965 -2.39872,2.284103 l 7.8e-4,1.902949 0.0264,64.756463 10e-4,2.456357 c -0.20277,1.473875 0.47546,2.953656 2.10277,3.842093 l 52.15244,28.472751 c 16.75532,9.147603 33.30968,18.185808 50.06907,27.256385 6.03932,3.29718 4.88513,2.19149 4.88455,-3.27784 l -0.007,-64.217535 -2.6e-4,-2.457852 -6e-5,-0.556001 c -0.20376,-1.459152 -1.08645,-2.733124 -2.30814,-3.399772 l -3.05418,-1.666594 -98.98658,-54.014654 -2.10215,-1.147097 c -0.13137,-0.08659 -0.25827,-0.164629 -0.38014,-0.233748 z"
             style="fill:#fbf6f6"
             id="path128" />
          <path
             d="m -943.59372,-238.26764 c -2.775,-0.16646 -2.29752,3.10465 -2.09185,5.59367 l 0.0666,62.85351 0.003,3.01039 2.5e-4,0.23835 c 0.003,2.37732 1.89998,5.07548 3.728,6.07292 l 4.19723,2.29018 95.16149,51.92397 3.72653,2.03335 0.94886,0.51774 c 2.10029,0.90831 3.25051,-0.68158 3.04562,-2.9326 l -0.0514,-68.26009 c -0.002,-2.37882 -0.68032,-4.17527 -2.78142,-5.55891 -0.94879,-0.51744 -2.10124,-0.90753 -3.25333,-1.53584 l -99.44978,-54.23593 c -0.94808,-0.51704 -2.09875,-1.38288 -3.24996,-2.01071 z"
             style="fill:#fbf6f6"
             id="path129" />
          <path
             d="m -706.84875,-109.15661 c -3.05236,-1.10954 -2.77884,1.7367 -2.98134,4.08447 l 0.0266,65.262831 c 0.002,3.805665 1.22178,5.818991 4.68069,7.706301 l 55.82991,30.4629055 46.55295,25.4010435 c 2.30772,1.259176 3.93724,1.911345 3.93688,-1.657294 l -0.007,-68.294767 c -2.4e-4,-2.380031 -0.679,-4.177848 -2.78358,-5.563592 -0.95043,-0.518327 -2.10503,-0.909392 -3.25911,-1.538779 l -98.73932,-53.848479 c -0.94972,-0.51794 -2.10359,-1.38573 -3.2568,-2.01464 z"
             style="fill:#fbf6f6"
             id="path130" />
          <path
             d="m -589.29263,127.81915 c -0.73711,-0.40246 -1.28085,-0.24621 -1.57715,0.27048 0.36281,-0.38212 0.91314,-0.45699 1.62621,-0.24369 z m 1.79727,0.98129 c 0.69058,0.44649 1.3513,0.89726 1.9352,1.21606 l 49.61712,27.09056 2e-5,-0.15947 -49.88888,-27.23891 z"
             style="fill:#fbf6f6"
             id="path131" />
          <path
             d="m -589.02725,41.630884 c -2.78289,-0.408425 -1.83324,2.488926 -1.49365,5.449516 l 0.005,63.34695 c 5.7e-4,7.37182 0.20391,7.72031 6.51533,11.16608 l 56.3406,30.75961 41.96562,22.91148 c 4.89004,2.35258 5.0939,1.98781 5.09514,-3.48289 0.20887,-22.40757 -0.26094,-45.26647 0.21968,-67.61072 3.1e-4,-1.34838 5.6e-4,-2.45945 -1.42697,-3.79371 l -3.05688,-1.668069 -101.10922,-55.172932 c -1.22183,-0.666724 -2.10427,-1.38676 -3.05457,-1.905315 z"
             style="fill:#fbf6f6"
             id="path132" />
          <path
             d="m -588.35467,-44.534783 c -1.83313,-0.761713 -2.78434,0.06913 -2.51257,2.755978 l 0.005,68.294341 c 2.6e-4,3.251483 1.15431,5.228357 3.73377,6.635812 l 3.7335,2.037153 94.79705,51.725142 3.46555,1.890949 c 2.78523,1.519734 3.93958,0.801574 3.94039,-2.767971 l 0.0152,-67.755711 c 4.3e-4,-1.9045 0.001,-3.808724 -1.83306,-5.364721 -0.95126,-0.518777 -2.10694,-0.910328 -3.26202,-1.540261 l -98.825,-53.895202 c -0.95055,-0.51839 -2.10398,-1.386046 -3.2582,-2.015509 z"
             style="fill:#fbf6f6"
             id="path133" />
          <path
             d="m -825.23879,-173.7217 c -2.1005,-0.35288 -1.89501,1.97921 -1.82578,3.99854 l 0.0484,66.11979 c 0.003,3.804707 1.15556,5.542323 4.4082,7.317088 l 100.93855,55.075844 c 4.67927,2.553185 4.88197,2.188206 4.87964,-3.282357 l -0.0146,-34.253615 -0.0128,-29.89941 c -10e-4,-2.69666 -0.002,-5.39335 -3.0549,-7.61319 -0.94961,-0.51788 -2.10314,-0.90846 -3.25622,-1.53731 l -98.85642,-53.91233 c -0.9489,-0.51749 -2.10184,-1.38468 -3.25405,-2.01305 z"
             style="fill:#fbf6f6"
             id="path134" />
          <path
             d="m -944.56595,-325.25915 c -1.62477,-0.0929 -1.41928,1.92154 -1.41751,3.58711 l 0.0721,68.03781 c 0.002,1.66493 -0.47079,3.30888 1.15531,4.98799 l 0.6772,0.36929 c 1.62446,0.0935 3.04688,0.86823 4.67246,1.99241 l 98.57179,53.7533 c 4.87963,2.66097 4.88045,2.66141 4.87595,-3.28616 l -0.0457,-60.43778 c -0.007,-9.83703 -0.007,-9.83734 -8.61707,-14.52996 l -99.26719,-54.10482 z"
             style="fill:#d96868"
             id="path135" />
          <path
             d="m -707.56151,-195.28831 c -1.42488,-0.77662 -2.10279,-0.35306 -2.10212,1.31336 l 10e-4,3.01602 0.0259,63.70743 10e-4,3.0149 c 7.8e-4,1.90374 0.88325,3.17832 2.30784,3.95517 l 52.17749,28.453397 49.88892,27.126376 3.25787,1.77658 0.20421,0.111361 c 0.95047,0.518308 1.62954,-0.143684 1.62943,-1.254456 l -3.8e-4,-3.570385 -0.007,-63.406223 c -5.9e-4,-5.71477 -5.9e-4,-5.71415 -5.09338,-8.48995 l -99.23829,-54.08936 z"
             style="fill:#d96868"
             id="path136" />
          <path
             d="m -773.42938,-231.18928 -51.53233,-27.53295 c -1.42365,-0.77596 -2.10032,0.20461 -2.0995,1.31527 l 0.003,3.807 0.0384,52.5106 0.009,12.21181 c 0.20577,3.44158 0.20649,3.67978 3.25655,5.34304 l 102.7928,56.05498 c 1.35662,0.7398 2.3062,0.46586 2.30537,-1.43784 l -0.001,-3.01485 -0.0276,-63.94478 -10e-4,-2.45956 c -9.6e-4,-2.22185 -0.95169,-3.53401 -2.57998,-4.4215 l -3.05299,-1.66401 z"
             style="fill:#d96868"
             id="path137" />
          <path
             d="m -589.5161,-130.94822 c -0.95075,-0.5182 -1.63003,0.14276 -1.62994,1.254 l 2.8e-4,3.57178 0.005,63.170356 c 4.7e-4,5.950726 -0.27113,5.563975 5.09271,8.488977 l 98.82744,53.89239876 3.26205,1.77885404 c 1.15513,0.629916 1.63123,0.096464 1.63153,-1.25267305 -0.40306,-21.25427775 -0.19511,-42.09907975 -0.19048,-63.05653975 -0.20322,-3.127936 0.001,-5.716092 0.47849,-8.473244 -1.15527,-1.106092 -2.31057,-2.053393 -3.73778,-2.831286 l -100.95523,-55.025173 -2.57981,-1.40611 z"
             style="fill:#d96868"
             id="path138" />
          <path
             d="m -826.67572,72.641906 c 0.15118,1.103003 0.5959,1.538512 1.90983,2.292469 -0.87258,-0.675688 -1.49395,-1.406354 -1.90983,-2.292469 z m 107.51546,59.952124 c -0.696,-0.2193 -1.63701,-0.69783 -2.90847,-1.39238 l -51.02931,-27.87575 4e-5,0.0789 50.89429,27.802 c 1.53743,0.83985 2.47364,1.35078 3.04345,1.38724 z"
             style="fill:#fbf6f6"
             id="path139" />
          <path
             d="m -825.17573,-86.912383 c -1.42298,-0.776483 -2.09973,-0.353193 -2.09833,1.548993 l 0.002,2.456652 0.0478,65.216769 0.002,2.455733 c 10e-4,1.901429 0.88276,2.936667 2.30544,3.713382 l 52.10764,28.448287 50.22859,27.343513 c 3.93233,2.146863 3.93151,2.146735 3.92977,-1.894766 l -0.029,-67.134626 c -0.002,-3.805254 -0.273,-4.190793 -3.73145,-6.077992 z"
             style="fill:#fbf6f6"
             id="path140" />
          <path
             d="m -945.44216,-66.476237 c 4.1e-4,0.390435 -0.01,0.761247 -0.0279,1.121062 0.27211,-0.283509 0.64539,-0.465286 1.1529,-0.506821 z m -0.0852,74.1968346 c 0.13128,0.8980875 0.42126,1.4477436 1.06677,1.9859222 -0.4387,-0.61016 -0.80997,-1.288237 -1.06677,-1.9859222 z"
             style="fill:#fbf6f6"
             id="path141" />
          <path
             d="m -944.47204,20.152724 c -2.09605,0.437228 -1.61835,3.467564 -1.6155,6.159014 l 0.0654,61.655184 c 0.008,7.596579 0.48196,8.408264 7.17993,12.069298 l 99.08735,54.16005 c 3.24997,1.7764 4.66953,0.89057 4.66666,-2.90861 l -0.0506,-67.052198 c -0.001,-1.900324 0.26857,-3.652388 -1.83127,-5.353582 l -5.07912,-2.774758 -90.37665,-49.373446 z"
             style="fill:#fbf6f6"
             id="path142" />
          <path
             d="m -706.77839,236.14125 c -3.04958,-1.42951 -3.25207,-1.54052 -3.25052,2.25936 l 0.0276,67.59324 4.6e-4,1.10663 c 9e-4,2.21572 0.94899,3.526 2.57514,4.41534 l 52.1151,28.50174 50.23579,27.23591 c 4.20413,2.29923 4.20494,2.30029 4.20442,-2.60711 l -0.007,-65.15513 c -5.8e-4,-5.46359 -8.5e-4,-5.4625 -4.68061,-8.02057 z"
             style="fill:#fbf6f6"
             id="path143" />
          <path
             d="m -707.66663,149.73319 c -1.82761,-1.03732 -2.58918,-0.1262 -2.39756,2.27978 l 7.7e-4,1.90114 0.0264,64.69456 10e-4,2.45401 c -0.20267,1.47229 0.47523,2.95126 2.10176,3.8403 l 52.12737,28.49198 c 16.74726,9.15378 33.29231,18.19735 50.04364,27.27418 6.03641,3.29941 4.88413,2.19449 4.88355,-3.26961 l -0.007,-64.15614 -2.6e-4,-2.45549 -6e-5,-0.55548 c -0.20366,-1.45794 -1.08593,-2.73148 -2.30703,-3.39858 l -3.05271,-1.66772 -98.93897,-54.05119 -2.10115,-1.14787 c -0.13131,-0.0866 -0.25814,-0.1647 -0.37995,-0.23387 z"
             style="fill:#fbf6f6"
             id="path144" />
          <path
             d="m -943.88646,-65.864926 c -2.77366,-0.168775 -2.29641,3.099637 -2.09083,5.586451 l 0.0666,62.7934862 0.003,3.0075078 2.5e-4,0.238124 c 0.003,2.3750552 1.89907,5.072324 3.72621,6.070442 l 4.19657,2.292469 95.1158,51.959144 3.72475,2.034724 0.94705,0.517347 c 2.09927,0.90932 3.24893,-0.67958 3.04414,-2.928629 l -0.0514,-68.1933138 c -0.002,-2.3765482 -0.67999,-4.1718885 -2.78008,-5.5560789 -0.94834,-0.5177829 -2.09888,-0.907789 -3.25041,-1.536516 L -940.6367,-63.852494 c -0.94762,-0.517394 -2.09909,-1.384178 -3.24976,-2.012432 z"
             style="fill:#fbf6f6"
             id="path145" />
          <path
             d="m -707.25387,63.334395 c -3.05089,-1.111198 -2.77886,1.730274 -2.98126,4.075619 l 0.0267,65.201996 c 0.002,3.80202 1.22256,5.81525 4.67981,7.70384 l 55.80307,30.48352 46.53055,25.41823 c 2.30661,1.26002 3.93398,1.91073 3.93362,-1.6545 l -0.007,-68.2279 c -2.4e-4,-2.37776 -0.67868,-4.17446 -2.78225,-5.56075 -0.94997,-0.51868 -2.10266,-0.90965 -3.25618,-1.53946 l -98.69183,-53.884964 c -0.94926,-0.518291 -2.10257,-1.386287 -3.25523,-2.015631 z"
             style="fill:#fbf6f6"
             id="path146" />
          <path
             d="m -589.75544,300.18754 c -1.15309,-0.6303 -1.83074,0.10751 -1.83063,1.45364 l 0.005,67.3729 c 4.4e-4,5.46159 7.1e-4,5.46205 4.67997,8.02113 l 99.38737,54.35481 c 5.09004,2.78373 5.09004,2.78373 5.09135,-3.15418 l 0.0144,-65.1721 4.2e-4,-1.89962 5e-5,-0.23823 c 2.5e-4,-1.10885 -0.88286,-2.38401 -1.83321,-2.9035 l -3.05464,-1.66973 -49.13527,-26.85851 10e-6,-0.15777 -49.86487,-27.25729 -3.25639,-1.78002 z"
             style="fill:#fbf6f6"
             id="path147" />
          <path
             d="m -589.4903,214.08192 c -2.78155,-0.41052 -1.831,2.48566 -1.49156,5.44372 l 0.005,63.28638 c 5.8e-4,7.36478 0.20382,7.71311 6.5122,11.16121 l 56.31349,30.78038 41.94542,22.92693 c 4.88769,2.35469 5.09146,1.99045 5.09269,-3.47501 0.20873,-22.38597 -0.26225,-45.22572 0.21812,-67.54816 3e-4,-1.3471 8.2e-4,-2.4554 -1.42494,-3.78906 l -3.05541,-1.6692 -101.06191,-55.21097 c -1.22124,-0.66718 -2.10326,-1.38731 -3.0531,-1.90622 z"
             style="fill:#fbf6f6"
             id="path148" />
          <path
             d="m -588.81814,127.99927 c -1.83225,-0.76262 -2.78165,0.0658 -2.51001,2.75029 l 0.005,68.23059 c 2.6e-4,3.24837 1.15376,5.22437 3.73197,6.63278 l 3.73171,2.03853 94.75142,51.76012 3.46253,1.89148 c 2.78388,1.52076 3.93904,0.80506 3.93983,-2.76107 l 0.0151,-67.69089 c 4.3e-4,-1.90267 8.5e-4,-3.80537 -1.83354,-5.36196 -0.9508,-0.51913 -2.10457,-0.91058 -3.25909,-1.54094 l -98.77742,-53.9317 c -0.95009,-0.51874 -2.10432,-1.38734 -3.25798,-2.01723 z"
             style="fill:#fbf6f6"
             id="path149" />
          <path
             d="m -825.58701,-1.2744627 c -2.09949,-0.3544124 -1.89544,1.97489251 -1.82625,3.9923579 l 0.0484,66.0550538 c 0.003,3.801066 1.155,5.5396 4.40608,7.315567 l 100.89004,55.113134 c 4.67703,2.55491 4.88099,2.1912 4.87865,-3.27413 l -0.0147,-34.22243 -0.0128,-29.869272 c -10e-4,-2.694079 -0.002,-5.388198 -3.05344,-7.608637 -0.94915,-0.518229 -2.10212,-0.909457 -3.25465,-1.538726 L -822.33587,0.73882875 c -0.94844,-0.51784281 -2.09948,-1.38449302 -3.25114,-2.01329145 z"
             style="fill:#fbf6f6"
             id="path150" />
          <path
             d="m -823.70079,172.78199 c -3.45332,-1.88767 -3.45305,-1.88783 -3.45009,2.14852 l 0.0308,42.10024 0.0187,25.47579 c 0.003,3.56008 0.003,3.56008 3.04902,5.22616 l 50.57987,27.66213 1.3e-4,0.23798 50.86984,27.82076 c 3.92951,2.14905 3.93005,2.14872 3.92806,-2.4409 l -0.0286,-66.24539 c -0.002,-4.59141 -0.003,-4.59234 -3.93285,-6.74075 z"
             style="fill:#fbf6f6"
             id="path151" />
          <path
             d="m -825.5239,85.451905 c -1.42229,-0.777009 -2.09871,-0.354727 -2.09732,1.545642 l 0.002,2.454305 0.0478,65.152928 0.002,2.45493 c 0.001,1.89961 0.88099,2.9339 2.30299,3.71114 l 52.0826,28.46752 50.20446,27.36212 c 3.93043,2.14831 3.93098,2.14703 3.92923,-1.89026 l -0.0291,-67.06892 c -0.002,-3.80162 -0.27287,-4.18703 -3.72966,-6.0755 z"
             style="fill:#fbf6f6"
             id="path152" />
          <path
             d="m -945.73387,105.75905 c 0.002,1.89899 -0.26583,3.33445 -0.26373,5.31252 l 0.0473,44.54114 0.0225,21.19745 c 0.005,4.58738 0.005,4.588 3.92714,6.73309 l 102.64977,56.13928 c 1.6246,0.88849 2.29984,0.4667 2.29839,-1.43197 l -0.003,-3.56005 -0.0477,-62.74814 c -0.005,-6.80621 0.94327,-6.28747 -5.55645,-9.84037 z"
             style="fill:#fbf6f6"
             id="path153" />
        </g>
      </g>
    </g>
  </g>
</svg>
